<?xml version="1.0" encoding="UTF-8"?>
<svg width="260px" height="149px" viewBox="0 0 260 149" version="1.1" xmlns="http://www.w3.org/2000/svg" xmlns:xlink="http://www.w3.org/1999/xlink">
    <!-- Generator: Sketch 51.3 (57544) - http://www.bohemiancoding.com/sketch -->
    <title>Antu_weather-many-clouds</title>
    <desc>Created with Sketch.</desc>
    <defs>
        <linearGradient x1="58.6262953%" y1="67.6526832%" x2="46.9475296%" y2="5.17491387%" id="linearGradient-1">
            <stop stop-color="#B7D7E1" offset="0%"></stop>
            <stop stop-color="#FFFFFF" offset="100%"></stop>
        </linearGradient>
        <linearGradient x1="43.910003%" y1="95.5594202%" x2="26.2085553%" y2="40.7455906%" id="linearGradient-2">
            <stop stop-color="#C3E6EE" offset="0%"></stop>
            <stop stop-color="#FFFFFF" offset="100%"></stop>
        </linearGradient>
        <linearGradient x1="56.0817794%" y1="95.5833193%" x2="45.8177062%" y2="40.3503909%" id="linearGradient-3">
            <stop stop-color="#C8E1E8" offset="0%"></stop>
            <stop stop-color="#FFFFFF" offset="100%"></stop>
        </linearGradient>
    </defs>
    <g id="Page-1" stroke="none" stroke-width="1" fill="none" fill-rule="evenodd">
        <g id="Antu_weather-many-clouds" fill-rule="nonzero">
            <path d="M107.710412,29.2511365 C102.666028,25.968578 96.3230335,24.0114842 89.4432795,24.0114842 C73.2366106,24.0114842 60.0484916,34.849669 59.632936,48.3531382 C42.9068226,53.6119308 31,67.1441104 31,83.0018343 C31,101.740171 47.6164529,117.219874 69.1676286,119.665045 L69.1676286,120 L221.832371,120 L221.832371,119.937794 C243.118053,118.904219 260,104.103996 260,85.9972885 C260,68.5365659 244.301232,54.1526438 224.089069,52.2146902 C224.169872,51.1524045 224.216045,50.0757636 224.216045,48.9943377 C224.216045,21.9347635 196.979837,0 163.389092,0 C138.525014,0 117.15853,12.0200973 107.710412,29.2367812" id="Shape" fill="url(#linearGradient-1)"></path>
            <path d="M48.5720947,78.5257198 C45.3780528,76.4467661 41.3617461,75.2072733 37.00557,75.2072733 C26.7437054,75.2072733 18.3931497,82.0714571 18.130025,90.6236542 C7.53925448,93.9542228 0,102.524603 0,112.567828 C0,124.435441 10.5213348,134.239254 24.1672758,135.787862 L24.1672758,136 L120.832724,136 L120.832724,135.960603 C134.310558,135.306005 145,125.932531 145,114.464949 C145,103.406492 135.059732,94.2966744 122.261638,93.0693038 C122.312801,92.3965228 122.342037,91.7146503 122.342037,91.0297472 C122.342037,73.8920169 105.096403,60 83.8271543,60 C68.0835245,60 54.5545278,67.6127283 48.5720947,78.5166281" id="Shape" fill="url(#linearGradient-2)"></path>
            <path d="M186.354184,72.6116573 C190.608388,69.8455056 195.966591,68.2023642 201.748311,68.2023642 C215.405543,68.2023642 226.516914,77.3243602 226.869052,88.6923767 C240.968835,93.1213717 251,104.493329 251,117.859121 C251,133.620669 237.000148,146.66335 218.836506,148.716292 L218.836506,149 L90.1634943,149 L90.1634943,148.948775 C72.2235071,148.077949 58,135.622386 58,120.380969 C58,105.683326 71.2289561,93.5784566 88.264806,91.9510768 C88.1934267,91.0566089 88.1553578,90.1503199 88.1553578,89.2400905 C88.1553578,66.4646536 111.106169,48 139.419942,48 C160.376892,48 178.393017,58.1149735 186.344667,72.6077169" id="Shape" fill="url(#linearGradient-3)"></path>
        </g>
    </g>
</svg>