<?xml version="1.0" encoding="UTF-8"?>
<svg width="596px" height="180px" viewBox="0 0 596 180" version="1.1" xmlns="http://www.w3.org/2000/svg" xmlns:xlink="http://www.w3.org/1999/xlink">
    <!-- Generator: Sketch 51.3 (57544) - http://www.bohemiancoding.com/sketch -->
    <title>Line</title>
    <desc>Created with Sketch.</desc>
    <defs></defs>
    <g id="Page-1" stroke="none" stroke-width="1" fill="none" fill-rule="evenodd">
        <path id="Line" d="M0.573594121,179.261109 L44.0165124,175.524419 L23.649993,142.264761 L0.573594121,179.261109 Z M558.160747,7.04661662 C564.830474,16.2994713 569.473239,23.0288669 572.067159,27.1974994 C591.325273,58.1467956 593.044203,78.172578 578.667579,88.38644 C563.342246,99.2743118 529.507017,100.501294 477.594674,91.5508896 C465.607945,89.4842121 465.709572,89.5108801 427.506947,78.9558894 C394.81578,69.9236578 373.942225,65.6217859 351.171573,64.5042078 C250.458669,59.5612432 143.054174,90.6776345 28.9828557,157.761308 L25.9658883,159.535542 L29.514357,165.569477 L32.5313244,163.795242 C145.498419,97.3609472 251.589199,66.6251552 350.828427,71.4957922 C372.952236,72.5816233 393.41407,76.7986428 425.642763,85.7030976 C464.21663,96.3606585 464.071651,96.3226148 476.405326,98.4491104 C530.072919,107.702144 565.367462,106.422242 582.721737,94.0929104 C601.024721,81.0895689 598.973095,57.1878272 578.010489,23.499279 C575.311705,19.1621226 570.595255,12.3259254 563.839253,2.95338338 L561.792637,0.114129884 L556.11413,4.20736313 L558.160747,7.04661662 Z" fill="#EFEFEF" fill-rule="nonzero"></path>
    </g>
</svg>